<svg width="40" height="24" viewBox="0 0 40 24" fill="none" xmlns="http://www.w3.org/2000/svg">
<path d="M25.4077 2.56665H14.5923V21.4333H25.4077V2.56665Z" fill="#FF5F00"/>
<path d="M15.279 12C15.279 8.16664 17.133 4.76664 19.9828 2.56664C17.8884 0.966636 15.2446 -3.05176e-05 12.3605 -3.05176e-05C5.5279 -3.05176e-05 0 5.36664 0 12C0 18.6333 5.5279 24 12.3605 24C15.2446 24 17.8884 23.0333 19.9828 21.4333C17.133 19.2666 15.279 15.8333 15.279 12Z" fill="#EB001B"/>
<path d="M40 12C40 18.6333 34.4721 24 27.6395 24C24.7553 24 22.1116 23.0333 20.0172 21.4333C22.9013 19.2333 24.721 15.8333 24.721 12C24.721 8.16667 22.8669 4.76667 20.0172 2.56667C22.1116 0.966667 24.7553 0 27.6395 0C34.4721 0 40 5.4 40 12Z" fill="#F79E1B"/>
</svg>
